<?xml version="1.0" ?><!DOCTYPE svg  PUBLIC '-//W3C//DTD SVG 1.1//EN'  'http://www.w3.org/Graphics/SVG/1.1/DTD/svg11.dtd'><svg height="2.82666in" style="shape-rendering:geometricPrecision; text-rendering:geometricPrecision; image-rendering:optimizeQuality; fill-rule:evenodd; clip-rule:evenodd" viewBox="1.3 3.1 3.52666 1.52666" 
width="6.82666in"
 xml:space="preserve" xmlns="http://www.w3.org/2000/svg" xmlns:xlink="http://www.w3.org/1999/xlink"><defs><style type="text/css">
   <![CDATA[
    .str0 {stroke:#373435;stroke-width:0.00694488}
    .fil4 {fill:none}
    .fil0 {fill:none}
    .fil1 {fill:none}
    .fil3 {fill:#FF9900}
    .fil2 {fill:#FFFFFE}
   ]]>
  </style></defs><g id="Layer_x0020_1"><path class="fil0" d="M1.25706 1.78925l4.31254 0c0.222059,0 0.403732,0.181669 0.403732,0.403728l0 2.44071c0,0.222059 -0.181673,0.403728 -0.403732,0.403728l-4.31254 0c-0.222051,0 -0.403724,-0.181669 -0.403724,-0.403728l0 -2.44071c0,-0.222059 0.181673,-0.403728 0.403724,-0.403728z"/><path class="fil1" d="M1.25706 1.86924c-0.177898,0 -0.323728,0.145835 -0.323728,0.323732l0 2.44071c0,0.177898 0.145831,0.323732 0.323728,0.323732l4.31254 0c0.177902,0 0.323736,-0.145827 0.323736,-0.323732l0 -2.44071c0,-0.177906 -0.145835,-0.323732 -0.323736,-0.323732l-4.31254 0z"/><g id="_398945152"><path class="fil2 str0" d="M1.87338 3.25206c-0.00990945,-0.0275039 -0.0235748,-0.0488622 -0.0410039,-0.0638937 -0.0245984,-0.0216969 -0.0555236,-0.0360472 -0.0924213,-0.0428819 -0.0370748,-0.00683465 -0.0859291,-0.010248 -0.146925,-0.010248 -0.0380945,0 -0.0734606,0.00290157 -0.106091,0.00853937 -0.0326299,0.00564173 -0.058252,0.0136654 -0.076874,0.0240906 -0.0261378,0.0143504 -0.0459567,0.0312598 -0.0597953,0.0509094 -0.0138386,0.0194764 -0.0244291,0.0462992 -0.0317756,0.0804646l0.194756 0.0205039c0.0080315,-0.0232362 0.0184528,-0.0389567 0.031437,-0.0474961 0.0167402,-0.0107638 0.041685,-0.0160591 0.0749961,-0.0160591 0.0259685,0 0.0440787,0.00495276 0.0543268,0.0150315 0.0104213,0.0100787 0.0155472,0.0275079 0.0155472,0.052622 -0.0252835,0.0100787 -0.0493701,0.0181102 -0.0720945,0.0242598 -0.0227205,0.0063189 -0.0722638,0.0170827 -0.14863,0.0324567 -0.0637244,0.0126457 -0.107457,0.0321181 -0.131205,0.0582598 -0.0237441,0.0261339 -0.0355354,0.0594528 -0.0355354,0.099937 0,0.0430551 0.0164016,0.0794449 0.049374,0.108827 0.0327992,0.0295512 0.0809764,0.044248 0.144358,0.044248 0.0476654,0 0.0895197,-0.00734646 0.125563,-0.0220394 0.0264843,-0.0109331 0.0529646,-0.0292126 0.0796142,-0.0548386 0.00238976,0.0152008 0.00478346,0.026311 0.00700394,0.0334843 0.0023937,0.00717323 0.00734646,0.0174252 0.0150354,0.0310906l0.190827 0c-0.0105906,-0.0220394 -0.0175984,-0.0401457 -0.0206693,-0.0543268 -0.00324803,-0.0141772 -0.00478346,-0.0338228 -0.00478346,-0.0589409l0 -0.235075c0,-0.0251102 -0.00495276,-0.0514213 -0.0150354,-0.0789252zm-0.271634 0.200909c0.0305787,-0.0078622 0.0597913,-0.0167441 0.087811,-0.0268228l0 0.0327992c0,0.025626 -0.00410236,0.0464685 -0.0122992,0.0625276 -0.00820079,0.0160591 -0.0220394,0.0295551 -0.0415157,0.0406614 -0.0196496,0.0111024 -0.0408307,0.0167402 -0.0635512,0.0167402 -0.0216969,0 -0.0380945,-0.00512598 -0.049374,-0.015374 -0.0111024,-0.010248 -0.0167441,-0.0235748 -0.0167441,-0.0398071 0,-0.0141811 0.00564173,-0.0268228 0.0170866,-0.0379252 0.010937,-0.0107598 0.0372402,-0.0216969 0.0785866,-0.0327992z" id="_398944768"/><path class="fil2 str0" d="M2.01244 3.14733l0 0.531992 0.203984 0 0 -0.271634c0,-0.0404882 0.00751575,-0.0695315 0.0225512,-0.0872992 0.0150315,-0.0175945 0.0343386,-0.0264803 0.0577441,-0.0264803 0.0143504,0 0.0269921,0.00410236 0.0375827,0.0123031 0.0107638,0.00820079 0.0182795,0.0189606 0.0225512,0.0322874 0.00273228,0.00837402 0.00410236,0.0242598 0.00410236,0.0476614l0 0.293161 0.20398 0 0 -0.275394c0,-0.038437 0.00734646,-0.0664528 0.0218661,-0.083878 0.0146929,-0.0174291 0.0339961,-0.0261417 0.0579134,-0.0261417 0.0201614,0 0.0372441,0.00922441 0.0507402,0.0276772 0.0093937,0.0116181 0.0140079,0.0295551 0.0140079,0.053815l0 0.303921 0.203984 0 0 -0.334331c0,-0.0720945 -0.0160591,-0.125224 -0.0480079,-0.159051 -0.0319449,-0.034 -0.0763622,-0.0509094 -0.133256,-0.0509094 -0.0386063,0 -0.0710669,0.0063189 -0.097374,0.0187913 -0.0263071,0.0124685 -0.0553543,0.0362205 -0.0872992,0.0708976 -0.0157165,-0.0297244 -0.035878,-0.0521063 -0.0606496,-0.0671417 -0.0247677,-0.0150315 -0.0582559,-0.0225472 -0.100626,-0.0225472 -0.0394606,0 -0.0731181,0.00683071 -0.100965,0.0205 -0.0278465,0.0136654 -0.0555236,0.0367283 -0.0828583,0.069189l0 -0.0773898 -0.189972 0z" id="_398944960"/><path class="fil2 str0" d="M3.38275 3.27102c0.0104213,0.0100787 0.0155472,0.0275079 0.0155472,0.052622 -0.0252835,0.0100787 -0.0493701,0.0181102 -0.0720945,0.0242598 -0.0227205,0.0063189 -0.0722638,0.0170827 -0.14863,0.0324567 -0.0637244,0.0126457 -0.107457,0.0321181 -0.131205,0.0582598 -0.0237441,0.0261339 -0.0355354,0.0594528 -0.0355354,0.099937 0,0.0430551 0.0164016,0.0794449 0.049374,0.108827 0.0327992,0.0295512 0.0809764,0.044248 0.144358,0.044248 0.0476654,0 0.0895197,-0.00734646 0.125567,-0.0220394 0.0264803,-0.0109331 0.0529606,-0.0292126 0.0796142,-0.0548386 0.00238583,0.0152008 0.00477953,0.026311 0.007,0.0334843 0.0023937,0.00717323 0.00734646,0.0174252 0.0150354,0.0310906l0.190827 0c-0.0105906,-0.0220394 -0.0175984,-0.0401457 -0.0206693,-0.0543268 -0.00324803,-0.0141772 -0.00478346,-0.0338228 -0.00478346,-0.0589409l0 -0.235075c0,-0.0251102 -0.00495276,-0.0514213 -0.0150354,-0.0789252 -0.00990945,-0.0275039 -0.0235748,-0.0488622 -0.0410039,-0.0638937 -0.0245984,-0.0216969 -0.0555197,-0.0360472 -0.0924213,-0.0428819 -0.0370748,-0.00683465 -0.0859291,-0.010248 -0.146925,-0.010248 -0.0380945,0 -0.0734606,0.00290157 -0.106091,0.00853937 -0.0326299,0.00564173 -0.058252,0.0136654 -0.076874,0.0240906 -0.0261378,0.0143504 -0.0459567,0.0312598 -0.0597913,0.0509094 -0.0138425,0.0194764 -0.0244331,0.0462992 -0.0317795,0.0804646l0.194756 0.0205039c0.0080315,-0.0232362 0.0184528,-0.0389567 0.031437,-0.0474961 0.0167402,-0.0107638 0.041685,-0.0160591 0.0749961,-0.0160591 0.0259685,0 0.0440787,0.00495276 0.0543268,0.0150315zm-0.0722638 0.181949c0.0305787,-0.0078622 0.0597913,-0.0167441 0.087811,-0.0268228l0 0.0327992c0,0.025626 -0.00410236,0.0464685 -0.0122992,0.0625276 -0.00820079,0.0160591 -0.0220394,0.0295551 -0.0415118,0.0406614 -0.0196496,0.0111024 -0.0408346,0.0167402 -0.0635551,0.0167402 -0.0216969,0 -0.0380945,-0.00512598 -0.049374,-0.015374 -0.0111024,-0.010248 -0.0167441,-0.0235748 -0.0167441,-0.0398071 0,-0.0141811 0.00564173,-0.0268228 0.0170866,-0.0379252 0.010937,-0.0107598 0.0372402,-0.0216969 0.0785866,-0.0327992z" id="_398945080"/><polygon class="fil2 str0" id="_398944792" points="3.69658,3.14733 3.69658,3.28674 3.932,3.28674 3.67608,3.54693 3.67608,3.67933 4.20602,3.67933 4.20602,3.53993 3.92106,3.53993 4.18963,3.26675 4.18963,3.14733 "/><path class="fil2 str0" d="M4.33655 3.21396c-0.0546693,0.0526142 -0.0820039,0.119587 -0.0820039,0.200902 0,0.0871299 0.0322874,0.157689 0.0970354,0.2115 0.052622,0.0435669 0.121642,0.0652638 0.20689,0.0652638 0.0956693,0 0.170665,-0.0261417 0.224823,-0.0784134 0.0541575,-0.0524528 0.0811496,-0.119417 0.0811496,-0.201421 0,-0.0727795 -0.0218661,-0.13411 -0.0654331,-0.183996 -0.0543228,-0.0618465 -0.134622,-0.0927638 -0.241055,-0.0927638 -0.0929331,0 -0.166736,0.0263071 -0.221406,0.0789291zm0.224142 0.0615c0.0280197,0 0.0514213,0.0112756 0.0703858,0.0338228 0.0189606,0.0227244 0.0283583,0.057063 0.0283583,0.103362 0,0.0495433 -0.00939764,0.0855906 -0.028189,0.107969 -0.0187913,0.022378 -0.0427087,0.0336575 -0.0719252,0.0336575 -0.0290394,0 -0.0529567,-0.0114488 -0.0720906,-0.0341693 -0.0191378,-0.0227244 -0.0287047,-0.0579134 -0.0287047,-0.105583 0,-0.0468071 0.00956693,-0.0816575 0.028874,-0.10472 0.0193071,-0.0228898 0.0437362,-0.0343386 0.0732913,-0.0343386z" id="_398944624"/><path class="fil2 str0" d="M4.96284 3.14733l0 0.531992 0.203984 0 0 -0.255575c0,-0.0485157 0.00768504,-0.082 0.0228937,-0.100795 0.0152047,-0.018622 0.035189,-0.0280197 0.059622,-0.0280197 0.0222126,0 0.0394646,0.00700787 0.0517638,0.0208465 0.0123031,0.0138386 0.0184528,0.0374134 0.0184528,0.0708937l0 0.29265 0.205008 0 0 -0.338264c0,-0.0702126 -0.0158898,-0.122146 -0.0476654,-0.15563 -0.0319488,-0.0336575 -0.0758504,-0.0503976 -0.132232,-0.0503976 -0.041685,0 -0.076874,0.00768504 -0.105921,0.0228937 -0.0290394,0.0152008 -0.0575709,0.0404843 -0.0859291,0.0760197l0 -0.0866142 -0.189976 0z" id="_398944672"/></g><path class="fil3" d="M3.96258 3.89678l-0.0417047 0.232083c0.134102,0.0438071 0.150504,-0.243287 0.16252,-0.337236 -0.0947087,-0.00105906 -0.381319,-0.0244173 -0.356433,0.114445l0.235618 -0.00929134z"/><path class="fil3" d="M2.84907 4.3469c-0.813358,-0.0681929 -1.26367,-0.69324 -0.863429,-0.507354 0.278752,0.129469 0.561291,0.301937 0.876291,0.321752 0.314724,0.0238307 0.604555,-0.108972 0.898504,-0.198748 0.422059,-0.128898 -0.096378,0.429008 -0.911366,0.38435z"/></g><rect class="fil4" height="6.82666" width="6.82666"/></svg>